HIERARCHY
ROOT Hips
{
	OFFSET -3.958830 18.904000 13.208200
	CHANNELS 6 Xposition Yposition Zposition Zrotation Yrotation Xrotation 
	JOINT LHipJoint
	{
		OFFSET 0.000000 0.000000 0.000000
		CHANNELS 3 Zrotation Yrotation Xrotation
		JOINT LeftUpLeg
		{
			OFFSET 1.800000 -1.400000 0.085000
			CHANNELS 3 Zrotation Yrotation Xrotation
			JOINT LeftLeg
			{
				OFFSET 2.215000 -6.000000 0.000000
				CHANNELS 3 Zrotation Yrotation Xrotation
				JOINT LeftFoot
				{
					OFFSET 2.500000 -6.900000 0.000000
					CHANNELS 3 Zrotation Yrotation Xrotation
					JOINT LeftToeBase
					{
						OFFSET 0.200000 -0.500000 1.950000
						CHANNELS 3 Zrotation Yrotation Xrotation
						End Site
						{
							OFFSET 0.000000 0.000000 0.000000
						}
					}
				}
			}
		}
	}
	JOINT RHipJoint
	{
		OFFSET 0.000000 0.000000 0.000000
		CHANNELS 3 Zrotation Yrotation Xrotation
		JOINT RightUpLeg
		{
			OFFSET -1.800000 -1.400000 0.085000
			CHANNELS 3 Zrotation Yrotation Xrotation
			JOINT RightLeg
			{
				OFFSET -2.215000 -6.000000 0.000000
				CHANNELS 3 Zrotation Yrotation Xrotation
				JOINT RightFoot
				{
					OFFSET -2.500000 -6.900000 0.000000
					CHANNELS 3 Zrotation Yrotation Xrotation
					JOINT RightToeBase
					{
						OFFSET -0.200000 -0.500000 1.950000
						CHANNELS 3 Zrotation Yrotation Xrotation
						End Site
						{
							OFFSET 0.000000 0.000000 0.000000
						}
					}
				}
			}
		}
	}
	JOINT LowerBack
	{
		OFFSET 0.000000 0.000000 0.000000
		CHANNELS 3 Zrotation Yrotation Xrotation
		JOINT Spine
		{
			OFFSET -0.087000 1.940000 -0.288900
			CHANNELS 3 Zrotation Yrotation Xrotation
			JOINT Spine1
			{
				OFFSET 0.000000 1.950000 0.060000
				CHANNELS 3 Zrotation Yrotation Xrotation
				JOINT Neck
				{
					OFFSET 0.000000 0.000000 0.000000
					CHANNELS 3 Zrotation Yrotation Xrotation
					JOINT Neck1
					{
						OFFSET 0.000000 1.600000 0.340000
						CHANNELS 3 Zrotation Yrotation Xrotation
						JOINT Head
						{
							OFFSET 0.000000 1.667000 -0.240000
							CHANNELS 3 Zrotation Yrotation Xrotation
							End Site
							{
								OFFSET 0.000000 0.000000 0.000000
							}
						}
					}
				}
				JOINT LeftShoulder
				{
					OFFSET 0.000000 0.000000 0.000000
					CHANNELS 3 Zrotation Yrotation Xrotation
					JOINT LeftArm
					{
						OFFSET 2.700000 1.550000 -0.730000
						CHANNELS 3 Zrotation Yrotation Xrotation
						JOINT LeftForeArm
						{
							OFFSET 5.450000 0.000000 0.000000
							CHANNELS 3 Zrotation Yrotation Xrotation
							JOINT LeftHand
							{
								OFFSET 3.450000 0.000000 0.000000
								CHANNELS 3 Zrotation Yrotation Xrotation
								JOINT LeftHandIndex1
								{
									OFFSET 0.750000 0.000000 0.000000
									CHANNELS 3 Zrotation Yrotation Xrotation
									End Site
									{
										OFFSET 0.000000 0.000000 0.000000
									}
								}
							}
						}
					}
				}
				JOINT RightShoulder
				{
					OFFSET 0.000000 0.000000 0.000000
					CHANNELS 3 Zrotation Yrotation Xrotation
					JOINT RightArm
					{
						OFFSET -2.700000 1.550000 -0.730000
						CHANNELS 3 Zrotation Yrotation Xrotation
						JOINT RightForeArm
						{
							OFFSET -5.450000 0.000000 0.000000
							CHANNELS 3 Zrotation Yrotation Xrotation
							JOINT RightHand
							{
								OFFSET -3.450000 0.000000 0.000000
								CHANNELS 3 Zrotation Yrotation Xrotation
								JOINT RightHandIndex1
								{
									OFFSET -0.750000 0.000000 0.000000
									CHANNELS 3 Zrotation Yrotation Xrotation
									End Site
									{
										OFFSET 0.000000 0.000000 0.000000
									}
								}
							}
						}
					}
				}
			}
		}
	}
}
MOTION
Frames: 6
Frame Time: 0.016667
0.007200 17.397460 -5.711750 -2.780558 1.124292 -2.499954 -15.100606 13.332124 3.111035 4.380544 -0.112539 -3.115410 -11.531147 6.327983 8.080456 -0.233818 5.001087 3.103752 0.192550 -0.059540 0.034340 18.282331 -10.921526 2.845560 -3.970206 0.305712 -6.013815 10.711774 -6.036710 12.050732 -0.259171 -4.289320 3.031453 0.116130 0.587910 0.244900 -3.713142 -1.674658 -7.666566 10.696631 0.353252 6.694007 -3.114443 1.355167 1.418668 2.790349 -0.781955 -9.773892 -5.174801 3.020804 47.280242 -2.892040 0.389590 6.808710 -2.576822 -4.282461 2.185024 -9.858826 -10.097263 -0.959223 147.675577 7.998389 23.310610 -4.204142 3.767120 0.208760 0.419890 -0.259710 0.233500 -2.755638 5.742835 4.945520 7.945714 0.014912 -8.033858 -146.263020 -8.694988 22.022256 2.225458 -2.989438 -0.263980 0.278410 0.124550 -0.068220 
-0.001570 17.386560 -5.704310 -2.938231 1.193395 -1.991715 -15.051280 13.246036 3.054501 4.383150 -0.208626 -3.630285 -11.531696 6.324291 8.344800 -0.215004 4.998689 3.137642 0.136020 -0.101160 -0.054490 18.345983 -10.938328 2.846276 -4.133427 0.370290 -6.391820 11.401347 -6.164067 12.016452 -0.237717 -4.367954 3.028084 0.095350 0.682580 0.250790 -3.878341 -1.496517 -7.571650 11.234284 -0.186381 5.754331 -4.001848 0.996533 1.998605 2.506084 -0.998208 -9.777209 -5.315530 3.140551 46.515460 -1.933620 -0.112220 8.327890 -2.366166 -5.510917 2.252389 -10.591653 -9.166123 -2.808613 149.508118 9.916946 29.253750 -4.253318 3.887254 0.158680 0.472580 -0.306540 0.262370 -2.549038 6.913581 5.146372 8.968908 1.033246 -8.868515 -149.521048 -10.338407 28.425048 2.238809 -3.084500 -0.275210 0.302990 0.153120 -0.022010 
-0.016620 17.372860 -5.699500 -3.008989 1.218722 -1.410386 -15.030915 13.233570 3.110586 4.535436 -0.324027 -3.943911 -11.811530 6.097773 7.242961 -0.306737 4.985638 3.130216 0.133010 -0.119850 -0.054130 18.358630 -10.868708 2.886893 -4.457078 0.445511 -6.523690 12.353395 -6.199938 11.261405 -0.254353 -4.346888 3.022434 0.107840 0.682050 0.230690 -3.929333 -1.601707 -7.669144 11.872941 -0.474880 5.611767 -4.700728 1.079825 0.317945 2.556722 -1.475460 -9.954410 -6.811452 3.341237 48.736754 -1.467550 -0.958820 7.093870 -2.963966 -6.811881 2.173227 -12.144394 -10.194331 -3.606938 150.502841 11.888750 36.306626 -4.253475 3.896797 0.234530 0.445340 -0.295980 0.244320 -2.168422 8.613817 5.152633 8.921000 2.008286 -10.273518 -152.789046 -12.688327 39.947683 2.261734 -3.115241 -0.322710 0.359830 0.193220 -0.048120 
-0.048650 17.358400 -5.714560 -2.909490 1.235751 -1.274119 -15.043273 13.278283 3.147588 4.623104 -0.453758 -4.258370 -11.823960 6.046511 7.141794 -0.347900 4.992651 3.108715 0.118480 -0.164410 -0.044780 18.328417 -10.840398 2.922155 -4.472295 0.488832 -6.714662 12.732232 -6.221898 11.061491 -0.239349 -4.330297 3.006438 0.096110 0.673330 0.230870 -3.865751 -1.726570 -7.766334 11.304368 -0.613395 6.088637 -4.925239 1.179706 -0.914458 2.570100 -1.125304 -10.067014 -6.289820 3.561322 49.709027 -0.893180 -1.034240 7.489970 -2.652982 -6.894272 2.628969 -14.241855 -12.210464 -2.252195 147.680999 11.643963 32.199047 -4.265993 3.818625 0.252900 0.438810 -0.312690 0.212040 -2.492804 8.388082 4.574748 11.790712 4.045007 -10.223173 -153.909373 -11.753173 39.847569 2.228685 -3.167584 -0.339900 0.345650 0.224480 -0.075290 
-0.071750 17.344270 -5.736880 -2.689163 0.594972 -2.074889 -15.041050 13.279391 3.165821 4.659317 -0.332867 -3.532840 -11.799771 6.111943 7.061057 -0.347466 5.059669 3.089464 0.104090 -0.191410 -0.074610 18.312516 -10.874865 2.962979 -5.125609 0.369695 -6.017817 13.509890 -6.422074 10.776098 -0.248555 -4.448034 2.978911 0.091010 0.705740 0.218700 -3.832868 -1.664454 -7.853751 10.693460 -0.405708 7.468544 -4.657767 1.388764 -0.716687 2.079378 -1.174035 -10.155883 -5.919015 3.997953 48.873781 1.587640 -1.710310 7.213110 -1.808762 -5.423594 2.972707 -15.790441 -14.405672 0.378228 140.490170 8.912458 18.734001 -4.257466 3.616550 0.262900 0.438840 -0.341990 0.208840 -2.342593 7.114751 4.349992 13.716460 6.344707 -7.781061 -149.604354 -8.538841 25.932511 2.129288 -3.037512 -0.360960 0.362980 0.253200 -0.078110 
-0.090390 17.339900 -5.771700 -2.503663 0.093194 -4.843105 -15.106491 13.290697 3.158204 5.264121 0.258468 -0.797938 -11.920149 6.429454 6.881349 -0.167816 5.186217 3.050075 0.197920 -0.067940 0.006580 18.259400 -10.896231 2.932123 -5.860142 -0.165283 -3.401889 13.691309 -6.804191 11.063191 -0.350000 -4.705051 2.906678 0.114980 0.588330 0.209910 -3.655270 -1.656752 -7.850690 9.671157 -0.306724 9.807041 -3.489820 0.891651 3.355803 2.272709 -1.802341 -10.311508 -6.620101 3.629928 47.496911 -0.234410 -1.169520 5.924640 -1.423834 -3.889362 3.103060 -16.370234 -15.809216 1.554523 131.025779 3.111865 1.014928 -4.136863 3.461890 0.229850 0.377240 -0.280560 0.234790 -2.831148 6.634769 4.908340 14.795711 9.899254 -5.094426 -141.428514 -4.515659 7.272084 2.094586 -2.844195 -0.274300 0.296070 0.141080 -0.068060 
